<svg id="WeArePennState" xmlns="http://www.w3.org/2000/svg" viewBox="0 0 167 10.06"><defs><style>.cls-1{fill:#fff;}</style></defs><path id="W" class="cls-1" d="M0,.24H1.26l2.17,8h0L5.81.24H7.08l2.34,8h0L11.67.24h1.19L10.05,9.82H8.82L6.45,1.7h0L4,9.82H2.8Z" transform="translate(0)"/><path id="E" class="cls-1" d="M16,.24h6V1.3H17.09v3h4.56v1H17.09V8.76h5.12V9.82H16Z" transform="translate(0)"/><path id="A" class="cls-1" d="M35,.24h1.07l4.07,9.58H38.79l-1-2.36H33L32,9.82H30.76Zm.51,1.46h0l-2,4.71h3.91Z" transform="translate(0)"/><path id="R" class="cls-1" d="M43.21.24h2.45A12.44,12.44,0,0,1,47,.32a3.84,3.84,0,0,1,1.23.36,2.13,2.13,0,0,1,.87.79,2.52,2.52,0,0,1,.34,1.41,2.33,2.33,0,0,1-.63,1.7,3,3,0,0,1-1.76.83L49.8,9.82H48.4l-2.59-4.3H44.35v4.3H43.21Zm1.14,4.22h1l1,0a3.14,3.14,0,0,0,.94-.17,1.7,1.7,0,0,0,.7-.47,1.36,1.36,0,0,0,.28-.91,1.42,1.42,0,0,0-.21-.82,1.29,1.29,0,0,0-.53-.48,2.21,2.21,0,0,0-.74-.23,7.89,7.89,0,0,0-.84-.05H44.35Z" transform="translate(0)"/><path id="E-2" data-name="E" class="cls-1" d="M53.25.24h6V1.3H54.38v3h4.56v1H54.38V8.76h5.13V9.82H53.25Z" transform="translate(0)"/><path id="P" class="cls-1" d="M68.94.24H72.5a7.1,7.1,0,0,1,1.41.14,3,3,0,0,1,1.15.47,2.36,2.36,0,0,1,.79.89,3.07,3.07,0,0,1,.29,1.41,3.28,3.28,0,0,1-.27,1.41,2.22,2.22,0,0,1-.75.9A2.84,2.84,0,0,1,74,5.94a6.24,6.24,0,0,1-1.41.14H71.05V9.82H68.94ZM71.05,4.3h1.41a3.31,3.31,0,0,0,.55,0,1.5,1.5,0,0,0,.47-.19,1,1,0,0,0,.34-.35A1.16,1.16,0,0,0,74,3.15a1,1,0,0,0-.17-.59,1.1,1.1,0,0,0-.43-.34,1.91,1.91,0,0,0-.59-.16l-.62,0H71.05Z" transform="translate(0)"/><path id="E-3" data-name="E" class="cls-1" d="M79.14.24h6.51v2h-4.4V4H85.4V5.92H81.25v2h4.64v2H79.14Z" transform="translate(0)"/><path id="N" class="cls-1" d="M89.43.24H92.3L96.37,6.9h0V.24H98.5V9.82H95.74L91.57,3h0V9.82H89.43Z" transform="translate(0)"/><path id="N-2" data-name="N" class="cls-1" d="M102.32.24h2.87l4.07,6.66h0V.24h2.11V9.82h-2.76L104.46,3h0V9.82h-2.11Z" transform="translate(0)"/><path id="S" class="cls-1" d="M126.22,2.58a1.69,1.69,0,0,0-.7-.48,2.56,2.56,0,0,0-.83-.15,2.7,2.7,0,0,0-.48.05,2,2,0,0,0-.46.17,1.14,1.14,0,0,0-.35.3.78.78,0,0,0-.13.46.79.79,0,0,0,.32.67,3.3,3.3,0,0,0,.82.39c.33.11.68.22,1.06.32a4.36,4.36,0,0,1,1.06.46,2.61,2.61,0,0,1,.82.8,2.39,2.39,0,0,1,.33,1.34,3,3,0,0,1-.3,1.39,2.81,2.81,0,0,1-.81,1,3.47,3.47,0,0,1-1.17.58,5.07,5.07,0,0,1-1.42.19,5.15,5.15,0,0,1-1.73-.28,4.4,4.4,0,0,1-1.48-.92l1.5-1.65a2.15,2.15,0,0,0,.82.67,2.35,2.35,0,0,0,1.54.17,1.76,1.76,0,0,0,.47-.18,1.13,1.13,0,0,0,.34-.31.85.85,0,0,0,.13-.45.81.81,0,0,0-.33-.68A3.14,3.14,0,0,0,124.4,6l-1.08-.35a4.77,4.77,0,0,1-1.08-.47,2.61,2.61,0,0,1-.83-.79,2.23,2.23,0,0,1-.33-1.28,2.92,2.92,0,0,1,.3-1.35,3,3,0,0,1,.81-1A3.56,3.56,0,0,1,123.36.2a4.83,4.83,0,0,1,1.37-.2,5.52,5.52,0,0,1,1.57.23,3.55,3.55,0,0,1,1.36.77Z" transform="translate(0)"/><path id="T" class="cls-1" d="M133.08,2.11h-2.73V.24h7.57V2.11h-2.73V9.82h-2.11Z" transform="translate(0)"/><path id="A-2" data-name="A" class="cls-1" d="M143,.24h1.74l4.17,9.58H146.5l-.83-2H142l-.8,2h-2.32ZM143.78,3l-1.17,3H145Z" transform="translate(0)"/><path id="T-2" data-name="T" class="cls-1" d="M152.52,2.11h-2.73V.24h7.57V2.11h-2.73V9.82h-2.11Z" transform="translate(0)"/><path id="E-4" data-name="E" class="cls-1" d="M160.25.24h6.51v2h-4.4V4h4.15V5.92h-4.15v2H167v2h-6.75Z" transform="translate(0)"/></svg>